# xmcd
#
# Track frame offsets:
#	150
#	15575
#	26735
#	41598
#	59758
#	75153
#	90994
#	102029
#	114957
#	128798
#	141545
#	154478
#	168241
#	180664
#	196988
#	226142
#
# Disc length: 3021 seconds
#
# Revision: 1
# Processed by: cddbd v1.5.1PL0 Copyright (c) Steve Scherf et al.
# Submitted via: audiograbber 1.83.01
#
DISCID=c60bcb10
DTITLE=All Star Karaoke - ASKPV1
DYEAR=1900
DGENRE=
TTITLE0=Billy Ray Cyrus - Achy Breaky Heart
TTITLE1=Everly Brothers - All I Have To Do Is Dream
TTITLE2=George Strait - All My Ex's Live In Texas
TTITLE3=Linda Ronstadt - Blue Bayou
TTITLE4=Brooks and Dunn - Boot Scootin' Boogie
TTITLE5=Steppenwolf - Born To Be Wild
TTITLE6=Everly Brothers - Bye Bye Love
TTITLE7=Beach Boys - California Girls
TTITLE8=Elvis Presley - Can't Help Falling In Love
TTITLE9=Patsy Cline - Crazy
TTITLE10=Queen - Crazy Little Thing Called Love
TTITLE11=Tammy Wynette - D.I.V.O.R.C.E.
TTITLE12=Oak Ridge Boys - Elvira
TTITLE13=Randy Travis - Forever and Ever Amen
TTITLE14=Garth Brooks - Friends In Low Places
TTITLE15=data - Data Track
EXTD=
EXTT0=
EXTT1=
EXTT2=
EXTT3=
EXTT4=
EXTT5=
EXTT6=
EXTT7=
EXTT8=
EXTT9=
EXTT10=
EXTT11=
EXTT12=
EXTT13=
EXTT14=
EXTT15=
PLAYORDER=
